{"title":"Who's Your Daddy? (2003)","uid":5349613,"size":734489786,"categoryP":"video","categoryS":"movies","magnet":"?xt=urn:btih:44b3101fb6321de511397c7193dee81f5ceb6a0a&amp;dn=Who%5C%27s+Your+Daddy%3F+%282003%29&amp;tr=udp%3A%2F%2Ftracker.openbittorrent.com%3A80&amp;tr=udp%3A%2F%2Fopen.demonii.com%3A1337&amp;tr=udp%3A%2F%2Ftracker.coppersurfer.tk%3A6969&amp;tr=udp%3A%2F%2Fexodus.desync.com%3A6969","seeders":1,"leechers":1,"uploader":"zingooo","files":-1,"time":1265744945,"description":"\nGeneral\nFormat                           : AVI\nFormat/Info                      : Audio Video Interleave\nFormat settings                  : rec\nFile size                        : 700 MiB\nDuration                         : 1h 49mn\nOverall bit rate                 : 897 Kbps\n\nVideo\nFormat                           : MPEG-4 Visual\nFormat profile                   : Simple@L3\nFormat settings, BVOP            : Yes\nFormat settings, QPel            : No\nFormat settings, GMC             : No warppoints\nFormat settings, Matrix          : Default\nCodec ID                         : XVID\nCodec ID/Hint                    : XviD\nDuration                         : 1h 49mn\nBit rate                         : 754 Kbps\nWidth                            : 544 pixels\nHeight                           : 304 pixels\nDisplay aspect ratio             : 16/9\nFrame rate                       : 23.976 fps\nResolution                       : 24 bits\nColorimetry                      : 4:2:0\nScan type                        : Progressive\nBits/(Pixel*Frame)               : 0.190\nStream size                      : 589 MiB (84%)\nWriting library                  : XviD 1.0.0 (UTC 2004-05-09)\n\nAudio\nFormat                           : MPEG Audio\nFormat version                   : Version 1\nFormat profile                   : Layer 3\nCodec ID                         : 55\nCodec ID/Hint                    : MP3\nDuration                         : 1h 49mn\nBit rate mode                    : Variable\nBit rate                         : 129 Kbps\nMinimum bit rate                 : 128 Kbps\nChannel(s)                       : 2 channels\nSampling rate                    : 48.0 KHz\nResolution                       : 16 bits\nStream size                      : 101 MiB (14%)\nAlignment                        : Aligned on interleaves\nInterleave, duration             : 24 ms (0.58 video frame)\nInterleave, preload duration     : 148 ms\nTitle                            : who\nWriting library                  : LAME3.93 \nEncoding settings                : ABR\n\n\n\n\n\n                   &lt;a href=&quot; http://www.imdb.com/title/tt0287138/&quot; rel=&quot;nofollow&quot; target=&quot;_NEW&quot;&gt; http://www.imdb.com/title/tt0287138/&lt;/a&gt;","torrent":{"xt":"urn:btih:44b3101fb6321de511397c7193dee81f5ceb6a0a","amp;dn":"Who%5C%27s+Your+Daddy%3F+%282003%29","amp;tr":["udp%3A%2F%2Ftracker.openbittorrent.com%3A80","udp%3A%2F%2Fopen.demonii.com%3A1337","udp%3A%2F%2Ftracker.coppersurfer.tk%3A6969","udp%3A%2F%2Fexodus.desync.com%3A6969"],"infoHash":"44b3101fb6321de511397c7193dee81f5ceb6a0a","infoHashBuffer":{"type":"Buffer","data":[68,179,16,31,182,50,29,229,17,57,124,113,147,222,232,31,92,235,106,10]},"announce":[],"urlList":[]}}